<svg width="20" height="20" viewBox="0 0 20 20" fill="none" xmlns="http://www.w3.org/2000/svg">
<path d="M15.4163 13.334C15.8378 13.7436 17.4997 14.8338 17.4997 15.4173M17.4997 15.4173C17.4997 16.0008 15.8378 17.0911 15.4163 17.5007M17.4997 15.4173H10.833" stroke="#F3F3F3" stroke-width="1.25" stroke-linecap="round" stroke-linejoin="round"/>
<path d="M9.16667 18.3327H8.93942C6.22172 18.3327 4.86288 18.3327 3.91923 17.6678C3.64885 17.4773 3.40882 17.2514 3.20642 16.9969C2.5 16.1088 2.5 14.8298 2.5 12.2721V10.1508C2.5 7.68156 2.5 6.4469 2.89078 5.46081C3.51901 3.87553 4.84762 2.62508 6.53197 2.03381C7.57969 1.66602 8.8915 1.66602 11.5152 1.66602C13.0144 1.66602 13.764 1.66602 14.3627 1.87618C15.3252 2.21406 16.0843 2.9286 16.4433 3.83447C16.6667 4.39795 16.6667 5.10347 16.6667 6.5145V10.8327" stroke="#F3F3F3" stroke-width="1.25" stroke-linecap="round" stroke-linejoin="round"/>
<path d="M2.5 9.99935C2.5 8.46527 3.74365 7.22157 5.27778 7.22157C5.8326 7.22157 6.4867 7.31879 7.02614 7.17425C7.50543 7.04582 7.8798 6.67145 8.00823 6.19215C8.15278 5.65272 8.05556 4.99862 8.05556 4.44379C8.05556 2.90967 9.29925 1.66602 10.8333 1.66602" stroke="#F3F3F3" stroke-width="1.25" stroke-linecap="round" stroke-linejoin="round"/>
</svg>
