<svg width="14" height="14" viewBox="0 0 14 14" fill="none" xmlns="http://www.w3.org/2000/svg">
<path d="M5.16685 7.29523C3.71526 6.20993 2.68079 5.01617 2.11595 4.34506C1.9411 4.13731 1.88381 3.98528 1.84936 3.71747C1.7314 2.80047 1.67242 2.34197 1.9413 2.04598C2.21019 1.75 2.68569 1.75 3.63669 1.75H10.3633C11.3143 1.75 11.7898 1.75 12.0587 2.04598C12.3276 2.34197 12.2686 2.80047 12.1507 3.71747C12.1162 3.98528 12.0589 4.13732 11.884 4.34506C11.3184 5.01703 10.2819 6.21291 8.82735 7.29954C8.69575 7.39789 8.60901 7.55808 8.59291 7.73582C8.44882 9.32867 8.31594 10.2011 8.23322 10.6425C8.09976 11.355 7.08937 11.7837 6.5485 12.1662C6.22656 12.3939 5.83584 12.1228 5.79412 11.7704C5.71458 11.0986 5.56477 9.73373 5.40124 7.73582C5.38655 7.55644 5.2995 7.39439 5.16685 7.29523Z" stroke="#303030" stroke-width="0.875" stroke-linecap="round" stroke-linejoin="round"/>
</svg>
